<?xml version="1.0" encoding="utf-8"?>
<!-- Generator: Adobe Illustrator 18.1.0, SVG Export Plug-In . SVG Version: 6.00 Build 0)  -->
<svg version="1.1" id="Layer_1" xmlns="http://www.w3.org/2000/svg" xmlns:xlink="http://www.w3.org/1999/xlink" x="0px" y="0px"
	 viewBox="0 0 750 500" enable-background="new 0 0 750 500" xml:space="preserve">
<g>
	
		<image overflow="visible" enable-background="new    " width="257" height="512" xlink:href="DEFFFC4A2E934F3C.png"  transform="matrix(0.7987 0 0 0.7832 44.2568 44.3065)">
	</image>
	<g enable-background="new    ">
		<path d="M257.3,234.5c2.1-2.2,4-3.3,6-3.3c1.9,0,3.7,0.6,5.3,1.9c1.6,1.2,3,2.9,4.2,4.9c1.2,2,2.2,3.9,3,5.6
			c0.7,1.6,1.4,4,2.1,7.3c0.7,3.3,1.3,7.1,1.8,11.4c0.5,4.3,0.8,8.9,0.9,13.9c0.1,5,0,9.9-0.4,14.7c-0.4,4.8-1.1,9.4-2.1,13.8
			c-1,4.4-2.5,8.1-4.4,11.3c-3,4.8-5.6,7.1-8.1,6.8c-2.4-0.3-4.5-1.9-6.2-4.9c-1.7-3-3.2-6.7-4.2-11.2c-1.1-4.4-1.8-8.3-2.3-11.7
			c-0.4-3.4-0.8-6.4-0.9-9.1c-0.2-2.7-0.3-5.3-0.3-7.8c0-2.5,0-5.1,0.1-7.7c0-2.6,0.1-5.6,0.2-9c0.1-2.9,0.2-5.7,0.5-8.5
			c0.2-2.8,0.5-5.4,0.9-7.8c0.4-2.4,0.9-4.5,1.5-6.4C255.6,236.8,256.4,235.5,257.3,234.5z M268.7,238.4c-0.7-0.7-1.5-1.2-2.3-1.8
			c-0.9-0.5-1.7-0.8-2.7-0.9c-0.9-0.1-1.8,0.1-2.7,0.5c-0.9,0.4-1.6,1.1-2.2,2.2c-1.1,2.3-2,5.6-2.7,9.7c-0.7,4.1-1.2,8.7-1.5,13.8
			s-0.3,10.4-0.2,15.8c0.1,5.5,0.5,10.7,1.1,15.7c0.6,5,1.5,9.4,2.6,13.4c1.1,4,2.5,6.9,4.1,8.9c1.4,1.6,3.1,2,4.9,1.4
			c1.8-0.7,3.4-1.9,4.6-3.7c1.5-2.6,2.8-6,3.8-10.2c1-4.2,1.8-8.7,2.3-13.5c0.5-4.8,0.7-9.8,0.5-15c-0.1-5.2-0.6-10-1.3-14.7
			c-0.8-4.6-1.8-8.8-3.2-12.6C272.5,243.7,270.8,240.7,268.7,238.4z"/>
		<path d="M308.9,229.4c0.5,0.9,0.6,1.8,0.2,2.7c-0.4,0.9-1,1.1-1.7,0.6c-1.6-1.7-3.2-2.3-4.8-1.9c-1.6,0.5-3.2,1.5-4.6,3.2
			c-1.5,1.7-2.8,3.9-4,6.6c-1.2,2.7-2.2,5.4-3.1,8.2c-0.9,2.8-1.5,5.5-1.8,8.2c-0.4,2.7-0.4,4.9-0.1,6.6c0.4,2,1.1,3.6,2.2,4.8
			c1.1,1.2,2.4,2.2,3.9,2.9c1.5,0.7,3,1.3,4.4,1.8c1.5,0.5,2.7,0.9,3.7,1.3c2.7,1,5.3,2.3,7.9,3.6c2.6,1.4,4.8,3.2,6.5,5.5
			c1.7,2.3,2.9,5.2,3.4,8.6c0.5,3.5,0,7.7-1.4,12.6c-0.9,3.1-2.1,6-3.8,8.6c-1.6,2.6-3.4,4.8-5.4,6.7c-2,1.8-4.2,3.2-6.4,4
			c-2.3,0.9-4.6,1-7,0.5c-1-0.3-2.1-0.6-3.5-1.1c-1.3-0.5-2.4-1.3-3.1-2.4c-2.2-3.4-3.5-7.2-3.9-11.3c-0.4-4.2-0.5-8.5-0.5-12.9
			c0.2-1.4,0.6-2.2,1.3-2.2c0.7,0,1.2,0.7,1.3,2.2c0,3.1,0,6.5,0.1,10c0.1,3.5,0.8,6.6,2,9.2c1.2,2.5,2.7,4,4.7,4.6
			c2,0.6,4,0.6,6.1,0c2.1-0.6,4.1-1.6,6.1-2.9c2-1.4,3.6-2.8,4.8-4.4c1.2-1.6,2.1-3.3,2.8-5.1c0.7-1.8,1.4-3.7,2.1-5.5
			c0.2-0.8,0.3-1.3,0.3-1.6c0.9-4.8,0.9-8.6,0-11.3c-0.9-2.7-2.3-4.9-4.3-6.5c-2-1.6-4.3-2.8-7-3.6c-2.7-0.8-5.4-1.8-8-2.9
			c-2.6-1.1-5-2.5-7.2-4.2c-2.2-1.7-3.7-4.2-4.6-7.6c-0.7-2.3-0.9-5.1-0.5-8.3c0.4-3.2,1.1-6.4,2.1-9.7c1.1-3.3,2.4-6.4,4.1-9.3
			c1.7-2.9,3.4-5.3,5.3-7.1c1.9-1.8,3.8-2.9,5.8-3.2C305.2,226.9,307.1,227.6,308.9,229.4z"/>
		<path d="M317.3,249.2c-0.8,0-1.3-0.5-1.4-1.5c-0.1-1,0.2-1.7,0.9-2.3c3.7-1.3,7.5-2.5,11.5-3.5c0.4-8.1,0.9-16.1,1.3-24.1
			c0.4-8,0.7-16,1-24.3c0.2-1.4,0.6-2.2,1.3-2.2c0.7,0,1.2,0.7,1.3,2.2c-0.2,8.1-0.5,16.1-0.9,24c-0.4,7.9-0.9,15.8-1.3,23.8
			l10.1-2.3c0.8,0.3,1.2,0.9,1.3,1.9c0,1-0.3,1.7-1.1,2.1c-1.8,0.5-3.5,0.9-5.2,1.3c-1.7,0.3-3.4,0.7-5.2,1.1c-0.2,4-0.4,8.1-0.5,12
			c-0.2,4-0.3,7.9-0.4,11.8c-0.2,9.3-0.3,18.8-0.3,28.5c0,9.7,0.9,19.1,2.7,28.1c0.4,2.1,1,4.1,1.7,6c0.7,1.9,1.3,3.9,1.9,6
			c0.4,1.2,0.2,2.1-0.5,2.7c-0.7,0.7-1.3,0.3-1.8-1l-3.8-12.1c-0.6-2.1-1.1-4.8-1.5-8.1c-0.4-3.3-0.7-6.8-0.9-10.4
			c-0.2-3.6-0.4-7-0.5-10.4c-0.1-3.3-0.1-6-0.1-7.9c-0.1-7.4,0-14.8,0.2-22.2c0.2-7.4,0.5-14.8,0.9-22.2c-1.8,0.4-3.6,0.9-5.4,1.4
			C320.9,248,319.1,248.6,317.3,249.2z"/>
		<path d="M346.3,277.8c-0.7-0.5-1.1-1.3-1-2.2c0-1,0.4-1.5,1.1-1.5c0-1.4,0-2.7,0-3.8c0-1.1,0-2.2,0.1-3.2c0.1-1.6,0.2-3.8,0.3-6.8
			c0.1-3,0.3-6.2,0.6-9.5c0.3-3.3,0.8-6.5,1.5-9.6c0.7-3.1,1.7-5.3,3.1-6.8c1.8-2,3.4-2.7,5-2.2c1.5,0.5,2.9,1.7,4.2,3.4
			c1.3,1.8,2.3,3.8,3.2,6.2c0.9,2.3,1.7,4.4,2.3,6.1c1,2.7,1.5,5.9,1.6,9.6c0.1,3.7-0.2,7.2-0.9,10.7c-0.7,3.5-1.8,6.6-3.3,9.5
			c-1.5,2.9-3.2,5-5.3,6.3c-1,0.7-1.9,0.9-2.7,0.8c-0.8-0.1-1.6-0.5-2.3-1c-0.8-0.5-1.5-1.2-2.2-2c-0.7-0.8-1.4-1.5-2.1-2.2
			c0.4,3.9,0.9,8.1,1.7,12.5c0.8,4.4,1.8,8.6,2.9,12.4c1.1,3.8,2.4,7.1,3.9,9.8c1.5,2.7,3.1,4.2,4.8,4.6c1.7,0.4,3.6-0.6,5.5-3
			c1.9-2.4,4-6.8,6.1-13.2c0.6-0.9,1.3-1.1,1.9-0.7c0.6,0.5,0.8,1.3,0.5,2.4c-0.6,1.6-1.3,3.3-2,5.3c-0.7,2-1.5,3.8-2.5,5.7
			c-0.9,1.8-2,3.4-3.2,4.8c-1.2,1.4-2.5,2.3-3.9,2.6c-3,0.7-5.5-0.4-7.7-3.2c-2.2-2.8-4.1-6.5-5.6-11.1c-1.5-4.6-2.7-9.6-3.6-15.2
			c-0.9-5.5-1.4-10.7-1.7-15.4c-0.1,0-0.2,0-0.2-0.1C346.5,277.8,346.4,277.8,346.3,277.8z M350.6,246.5c-0.7,4.6-1.2,9.3-1.4,14.3
			c-0.2,5-0.2,9.8-0.1,14.5c1.3,1,2.5,2.3,3.7,3.8c1.2,1.5,2.5,2.1,3.8,1.9c2.2-0.4,4-1.9,5.2-4.4c1.3-2.5,2.1-5.4,2.6-8.7
			c0.5-3.3,0.7-6.6,0.6-10c-0.1-3.4-0.4-6.2-0.8-8.4c-0.6-2.9-1.6-5.4-2.8-7.6c-1.3-2.2-2.6-3.7-4-4.3c-1.4-0.7-2.7-0.3-4,1
			C352.2,239.8,351.2,242.4,350.6,246.5z"/>
		<path d="M385,225.7c-0.1,10.8-0.1,21.7,0,32.5c0.1,10.8,0.3,21.7,0.7,32.5c0.4,10.8,1,21.7,1.9,32.5c-0.3,1.2-0.7,1.7-1.4,1.7
			c-0.7-0.1-1.1-0.6-1.3-1.7c-0.9-10.8-1.5-21.7-1.9-32.6c-0.4-10.9-0.6-21.8-0.7-32.7c-0.1-10.9-0.1-21.8,0-32.7
			c0.1-10.9,0.1-21.8,0.1-32.8c0.1-1,0.4-1.7,1.1-2h0.4l0.5,0.4l0.1,0.2c0.2,0.3,0.3,0.5,0.3,0.6c0.1,0.1,0.1,0.3,0.1,0.4
			c0,0.1,0,0.3,0.1,0.4v0.8C385.1,204.1,385.1,214.9,385,225.7z"/>
	</g>
	<g enable-background="new    ">
		<path fill="none" stroke="#000000" stroke-width="4.0749" d="M257.3,234.5c2.1-2.2,4-3.3,6-3.3c1.9,0,3.7,0.6,5.3,1.9
			c1.6,1.2,3,2.9,4.2,4.9c1.2,2,2.2,3.9,3,5.6c0.7,1.6,1.4,4,2.1,7.3c0.7,3.3,1.3,7.1,1.8,11.4c0.5,4.3,0.8,8.9,0.9,13.9
			c0.1,5,0,9.9-0.4,14.7c-0.4,4.8-1.1,9.4-2.1,13.8c-1,4.4-2.5,8.1-4.4,11.3c-3,4.8-5.6,7.1-8.1,6.8c-2.4-0.3-4.5-1.9-6.2-4.9
			c-1.7-3-3.2-6.7-4.2-11.2c-1.1-4.4-1.8-8.3-2.3-11.7c-0.4-3.4-0.8-6.4-0.9-9.1c-0.2-2.7-0.3-5.3-0.3-7.8c0-2.5,0-5.1,0.1-7.7
			c0-2.6,0.1-5.6,0.2-9c0.1-2.9,0.2-5.7,0.5-8.5c0.2-2.8,0.5-5.4,0.9-7.8c0.4-2.4,0.9-4.5,1.5-6.4
			C255.6,236.8,256.4,235.5,257.3,234.5z M268.7,238.4c-0.7-0.7-1.5-1.2-2.3-1.8c-0.9-0.5-1.7-0.8-2.7-0.9c-0.9-0.1-1.8,0.1-2.7,0.5
			c-0.9,0.4-1.6,1.1-2.2,2.2c-1.1,2.3-2,5.6-2.7,9.7c-0.7,4.1-1.2,8.7-1.5,13.8s-0.3,10.4-0.2,15.8c0.1,5.5,0.5,10.7,1.1,15.7
			c0.6,5,1.5,9.4,2.6,13.4c1.1,4,2.5,6.9,4.1,8.9c1.4,1.6,3.1,2,4.9,1.4c1.8-0.7,3.4-1.9,4.6-3.7c1.5-2.6,2.8-6,3.8-10.2
			c1-4.2,1.8-8.7,2.3-13.5c0.5-4.8,0.7-9.8,0.5-15c-0.1-5.2-0.6-10-1.3-14.7c-0.8-4.6-1.8-8.8-3.2-12.6
			C272.5,243.7,270.8,240.7,268.7,238.4z"/>
		<path fill="none" stroke="#000000" stroke-width="4.0749" d="M308.9,229.4c0.5,0.9,0.6,1.8,0.2,2.7c-0.4,0.9-1,1.1-1.7,0.6
			c-1.6-1.7-3.2-2.3-4.8-1.9c-1.6,0.5-3.2,1.5-4.6,3.2c-1.5,1.7-2.8,3.9-4,6.6c-1.2,2.7-2.2,5.4-3.1,8.2c-0.9,2.8-1.5,5.5-1.8,8.2
			c-0.4,2.7-0.4,4.9-0.1,6.6c0.4,2,1.1,3.6,2.2,4.8c1.1,1.2,2.4,2.2,3.9,2.9c1.5,0.7,3,1.3,4.4,1.8c1.5,0.5,2.7,0.9,3.7,1.3
			c2.7,1,5.3,2.3,7.9,3.6c2.6,1.4,4.8,3.2,6.5,5.5c1.7,2.3,2.9,5.2,3.4,8.6c0.5,3.5,0,7.7-1.4,12.6c-0.9,3.1-2.1,6-3.8,8.6
			c-1.6,2.6-3.4,4.8-5.4,6.7c-2,1.8-4.2,3.2-6.4,4c-2.3,0.9-4.6,1-7,0.5c-1-0.3-2.1-0.6-3.5-1.1c-1.3-0.5-2.4-1.3-3.1-2.4
			c-2.2-3.4-3.5-7.2-3.9-11.3c-0.4-4.2-0.5-8.5-0.5-12.9c0.2-1.4,0.6-2.2,1.3-2.2c0.7,0,1.2,0.7,1.3,2.2c0,3.1,0,6.5,0.1,10
			c0.1,3.5,0.8,6.6,2,9.2c1.2,2.5,2.7,4,4.7,4.6c2,0.6,4,0.6,6.1,0c2.1-0.6,4.1-1.6,6.1-2.9c2-1.4,3.6-2.8,4.8-4.4
			c1.2-1.6,2.1-3.3,2.8-5.1c0.7-1.8,1.4-3.7,2.1-5.5c0.2-0.8,0.3-1.3,0.3-1.6c0.9-4.8,0.9-8.6,0-11.3c-0.9-2.7-2.3-4.9-4.3-6.5
			c-2-1.6-4.3-2.8-7-3.6c-2.7-0.8-5.4-1.8-8-2.9c-2.6-1.1-5-2.5-7.2-4.2c-2.2-1.7-3.7-4.2-4.6-7.6c-0.7-2.3-0.9-5.1-0.5-8.3
			c0.4-3.2,1.1-6.4,2.1-9.7c1.1-3.3,2.4-6.4,4.1-9.3c1.7-2.9,3.4-5.3,5.3-7.1c1.9-1.8,3.8-2.9,5.8-3.2
			C305.2,226.9,307.1,227.6,308.9,229.4z"/>
		<path fill="none" stroke="#000000" stroke-width="4.0749" d="M317.3,249.2c-0.8,0-1.3-0.5-1.4-1.5c-0.1-1,0.2-1.7,0.9-2.3
			c3.7-1.3,7.5-2.5,11.5-3.5c0.4-8.1,0.9-16.1,1.3-24.1c0.4-8,0.7-16,1-24.3c0.2-1.4,0.6-2.2,1.3-2.2c0.7,0,1.2,0.7,1.3,2.2
			c-0.2,8.1-0.5,16.1-0.9,24c-0.4,7.9-0.9,15.8-1.3,23.8l10.1-2.3c0.8,0.3,1.2,0.9,1.3,1.9c0,1-0.3,1.7-1.1,2.1
			c-1.8,0.5-3.5,0.9-5.2,1.3c-1.7,0.3-3.4,0.7-5.2,1.1c-0.2,4-0.4,8.1-0.5,12c-0.2,4-0.3,7.9-0.4,11.8c-0.2,9.3-0.3,18.8-0.3,28.5
			c0,9.7,0.9,19.1,2.7,28.1c0.4,2.1,1,4.1,1.7,6c0.7,1.9,1.3,3.9,1.9,6c0.4,1.2,0.2,2.1-0.5,2.7c-0.7,0.7-1.3,0.3-1.8-1l-3.8-12.1
			c-0.6-2.1-1.1-4.8-1.5-8.1c-0.4-3.3-0.7-6.8-0.9-10.4c-0.2-3.6-0.4-7-0.5-10.4c-0.1-3.3-0.1-6-0.1-7.9c-0.1-7.4,0-14.8,0.2-22.2
			c0.2-7.4,0.5-14.8,0.9-22.2c-1.8,0.4-3.6,0.9-5.4,1.4C320.9,248,319.1,248.6,317.3,249.2z"/>
		<path fill="none" stroke="#000000" stroke-width="4.0749" d="M346.3,277.8c-0.7-0.5-1.1-1.3-1-2.2c0-1,0.4-1.5,1.1-1.5
			c0-1.4,0-2.7,0-3.8c0-1.1,0-2.2,0.1-3.2c0.1-1.6,0.2-3.8,0.3-6.8c0.1-3,0.3-6.2,0.6-9.5c0.3-3.3,0.8-6.5,1.5-9.6
			c0.7-3.1,1.7-5.3,3.1-6.8c1.8-2,3.4-2.7,5-2.2c1.5,0.5,2.9,1.7,4.2,3.4c1.3,1.8,2.3,3.8,3.2,6.2c0.9,2.3,1.7,4.4,2.3,6.1
			c1,2.7,1.5,5.9,1.6,9.6c0.1,3.7-0.2,7.2-0.9,10.7c-0.7,3.5-1.8,6.6-3.3,9.5c-1.5,2.9-3.2,5-5.3,6.3c-1,0.7-1.9,0.9-2.7,0.8
			c-0.8-0.1-1.6-0.5-2.3-1c-0.8-0.5-1.5-1.2-2.2-2c-0.7-0.8-1.4-1.5-2.1-2.2c0.4,3.9,0.9,8.1,1.7,12.5c0.8,4.4,1.8,8.6,2.9,12.4
			c1.1,3.8,2.4,7.1,3.9,9.8c1.5,2.7,3.1,4.2,4.8,4.6c1.7,0.4,3.6-0.6,5.5-3c1.9-2.4,4-6.8,6.1-13.2c0.6-0.9,1.3-1.1,1.9-0.7
			c0.6,0.5,0.8,1.3,0.5,2.4c-0.6,1.6-1.3,3.3-2,5.3c-0.7,2-1.5,3.8-2.5,5.7c-0.9,1.8-2,3.4-3.2,4.8c-1.2,1.4-2.5,2.3-3.9,2.6
			c-3,0.7-5.5-0.4-7.7-3.2c-2.2-2.8-4.1-6.5-5.6-11.1c-1.5-4.6-2.7-9.6-3.6-15.2c-0.9-5.5-1.4-10.7-1.7-15.4c-0.1,0-0.2,0-0.2-0.1
			C346.5,277.8,346.4,277.8,346.3,277.8z M350.6,246.5c-0.7,4.6-1.2,9.3-1.4,14.3c-0.2,5-0.2,9.8-0.1,14.5c1.3,1,2.5,2.3,3.7,3.8
			c1.2,1.5,2.5,2.1,3.8,1.9c2.2-0.4,4-1.9,5.2-4.4c1.3-2.5,2.1-5.4,2.6-8.7c0.5-3.3,0.7-6.6,0.6-10c-0.1-3.4-0.4-6.2-0.8-8.4
			c-0.6-2.9-1.6-5.4-2.8-7.6c-1.3-2.2-2.6-3.7-4-4.3c-1.4-0.7-2.7-0.3-4,1C352.2,239.8,351.2,242.4,350.6,246.5z"/>
		<path fill="none" stroke="#000000" stroke-width="4.0749" d="M385,225.7c-0.1,10.8-0.1,21.7,0,32.5c0.1,10.8,0.3,21.7,0.7,32.5
			c0.4,10.8,1,21.7,1.9,32.5c-0.3,1.2-0.7,1.7-1.4,1.7c-0.7-0.1-1.1-0.6-1.3-1.7c-0.9-10.8-1.5-21.7-1.9-32.6
			c-0.4-10.9-0.6-21.8-0.7-32.7c-0.1-10.9-0.1-21.8,0-32.7c0.1-10.9,0.1-21.8,0.1-32.8c0.1-1,0.4-1.7,1.1-2h0.4l0.5,0.4l0.1,0.2
			c0.2,0.3,0.3,0.5,0.3,0.6c0.1,0.1,0.1,0.3,0.1,0.4c0,0.1,0,0.3,0.1,0.4v0.8C385.1,204.1,385.1,214.9,385,225.7z"/>
	</g>
	<g enable-background="new    ">
		<path d="M425.2,276.6c-0.4-0.9-0.3-1.8,0.3-2.5l5.1-4.7c-0.3-12.5-0.5-24.9-0.7-37.2c-0.2-12.3-0.4-24.6-0.6-37
			c0.2-1.4,0.6-2.2,1.3-2.2c0.7,0,1.2,0.7,1.3,2.2c0.1,12,0.2,24,0.5,35.9c0.2,11.9,0.5,23.9,0.9,35.9c5.9-5.5,11.8-10.5,17.6-15
			c5.8-4.5,12-8.1,18.5-10.9c0.2-8.2,0.4-16.5,0.5-24.8c0.2-8.3,0.4-16.6,0.5-24.9c0.2-1.4,0.6-2.2,1.3-2.2c0.7,0,1.2,0.7,1.3,2.2
			c-0.2,8.2-0.4,16.3-0.5,24.4c-0.2,8-0.4,16.1-0.5,24.4c4.4-1.7,8.8-2.8,13.3-3.3c0.8,0.3,1.2,0.9,1.3,1.9c0,1-0.3,1.7-1.1,2.1
			c-4.7,0.5-9.3,1.7-13.6,3.5c-0.2,11.3-0.2,22.6,0.1,33.9c0.2,11.2,1,22.5,2.2,33.9c0.2,1.4-0.1,2.2-0.9,2.3
			c-0.8,0.1-1.3-0.5-1.6-1.8c-1.3-11.3-2-22.6-2.3-33.7c-0.3-11.1-0.3-22.3-0.1-33.7c-6.4,2.9-12.6,6.6-18.4,11.1
			c-5.8,4.5-11.7,9.5-17.6,15l0.3,6.8c0.4,11.9,0.6,23.8,0.9,35.7c0.2,11.9,1,23.8,2.3,35.7c0.2,1.4-0.1,2.2-0.9,2.3
			c-0.8,0.1-1.3-0.5-1.6-1.8c-1.4-11.9-2.3-23.9-2.5-36c-0.2-12.1-0.5-24.1-0.9-36c-0.1-0.7-0.1-1.4-0.1-2.2c0-0.8,0-1.5,0-2.2
			l-3.9,3.5C426.1,277.8,425.6,277.5,425.2,276.6z"/>
		<path d="M488.2,234.5c2.1-2.2,4-3.3,6-3.3c1.9,0,3.7,0.6,5.3,1.9c1.6,1.2,3,2.9,4.2,4.9c1.2,2,2.2,3.9,3,5.6
			c0.7,1.6,1.4,4,2.1,7.3c0.7,3.3,1.3,7.1,1.8,11.4c0.5,4.3,0.8,8.9,0.9,13.9c0.1,5,0,9.9-0.4,14.7c-0.4,4.8-1.1,9.4-2.1,13.8
			c-1,4.4-2.5,8.1-4.4,11.3c-3,4.8-5.6,7.1-8.1,6.8c-2.4-0.3-4.5-1.9-6.2-4.9c-1.7-3-3.2-6.7-4.2-11.2c-1.1-4.4-1.8-8.3-2.3-11.7
			c-0.4-3.4-0.8-6.4-0.9-9.1c-0.2-2.7-0.3-5.3-0.3-7.8c0-2.5,0-5.1,0.1-7.7c0-2.6,0.1-5.6,0.2-9c0.1-2.9,0.2-5.7,0.5-8.5
			c0.2-2.8,0.5-5.4,0.9-7.8c0.4-2.4,0.9-4.5,1.5-6.4C486.6,236.8,487.3,235.5,488.2,234.5z M499.6,238.4c-0.7-0.7-1.5-1.2-2.3-1.8
			c-0.9-0.5-1.7-0.8-2.7-0.9c-0.9-0.1-1.8,0.1-2.7,0.5c-0.9,0.4-1.6,1.1-2.2,2.2c-1.1,2.3-2,5.6-2.7,9.7c-0.7,4.1-1.2,8.7-1.5,13.8
			s-0.3,10.4-0.2,15.8c0.1,5.5,0.5,10.7,1.1,15.7c0.6,5,1.5,9.4,2.6,13.4c1.1,4,2.5,6.9,4.1,8.9c1.4,1.6,3.1,2,4.9,1.4
			c1.8-0.7,3.4-1.9,4.6-3.7c1.5-2.6,2.8-6,3.8-10.2c1-4.2,1.8-8.7,2.3-13.5c0.5-4.8,0.7-9.8,0.5-15c-0.1-5.2-0.6-10-1.3-14.7
			c-0.8-4.6-1.8-8.8-3.2-12.6C503.4,243.7,501.7,240.7,499.6,238.4z"/>
		<path d="M516,246.5c-0.4-0.4-0.5-1-0.4-2c0.2-1,0.5-1.7,1.1-2.1c0.5-0.3,1,0,1.5,0.9c0.4,0.8,0.7,2.5,1,5.2
			c0.3,2.7,0.6,5.8,0.9,9.5c0.3,3.7,0.5,7.5,0.8,11.6c0.3,4.1,0.5,8,0.7,11.5c0.2,3.6,0.4,6.6,0.6,9.1c0.2,2.5,0.4,4,0.5,4.5
			c0.4-5.9,0.9-12.1,1.6-18.7c0.7-6.6,1.6-12.6,2.6-18.1c0.4-1.7,0.8-3.9,1.4-6.8c0.6-2.8,1.3-5.6,2-8.3c0.8-2.7,1.6-5.2,2.6-7.5
			c0.9-2.3,1.9-3.9,2.9-4.8c2.1-1.8,4-2.4,5.6-1.8c1.6,0.7,3.2,3.5,4.9,8.6c1.7,5.4,2.8,11.4,3.4,18.1c0.5,6.7,0.7,13.4,0.4,20.2
			c-0.3,6.7-0.9,13.1-1.7,19.2c-0.9,6.1-1.9,11.1-3.1,15c-1,3.3-2.2,6.2-3.8,8.9c-1.5,2.7-3.2,4.7-4.9,6c-1.7,1.3-3.5,1.6-5.4,1
			c-1.8-0.7-3.5-2.7-4.9-6.1c-0.4-1.2-0.3-2.3,0.3-3.3c0.7-1,1.3-1,1.8,0c1.3,3,2.7,4.8,4,5.3c1.3,0.5,2.6,0.3,3.9-0.8
			c1.3-1,2.4-2.7,3.6-5c1.1-2.3,2.1-4.7,2.9-7.3c1.4-4.6,2.6-9.8,3.4-15.9c0.8-6,1.3-12.2,1.3-18.5c0.1-6.3-0.2-12.5-0.7-18.6
			c-0.6-6.1-1.5-11.4-2.8-16.1c-0.3-0.9-0.6-1.9-1.1-2.9c-0.4-1-0.9-1.9-1.5-2.5c-0.5-0.7-1.1-1-1.8-1.2c-0.7-0.1-1.4,0.3-2.2,1.2
			c-3.4,6.9-6,14.7-7.7,23.3c-1.7,8.6-2.8,17.6-3.4,27.1c-0.6,9.5-0.8,19.1-0.7,29c0.1,9.9,0.4,19.5,0.7,28.9
			c0.3,3.1,0.5,6.3,0.8,9.5c0.3,3.2,0.4,6.4,0.5,9.5c0,0.8,0,1.4,0.1,1.8l-0.4-0.2c-0.3,0.7-0.7,0.9-1.2,0.9
			c-0.5-0.1-0.9-0.6-1.2-1.5v-0.2c-0.4-4.7-0.8-9.4-1.1-14.2c-0.3-4.8-0.6-9.6-0.7-14.4v-1L516,246.5z"/>
		<path d="M554.1,246.5c-0.4-0.4-0.5-1-0.4-2c0.2-1,0.5-1.7,1.1-2.1c0.5-0.3,1,0,1.5,0.9c0.4,0.8,0.7,2.5,1,5.2
			c0.3,2.7,0.6,5.8,0.9,9.5c0.3,3.7,0.5,7.5,0.8,11.6c0.3,4.1,0.5,8,0.7,11.5c0.2,3.6,0.4,6.6,0.6,9.1c0.2,2.5,0.4,4,0.5,4.5
			c0.4-5.9,0.9-12.1,1.6-18.7c0.7-6.6,1.6-12.6,2.6-18.1c0.4-1.7,0.8-3.9,1.4-6.8c0.6-2.8,1.3-5.6,2-8.3c0.8-2.7,1.6-5.2,2.6-7.5
			c0.9-2.3,1.9-3.9,2.9-4.8c2.1-1.8,4-2.4,5.6-1.8c1.6,0.7,3.2,3.5,4.9,8.6c1.7,5.4,2.8,11.4,3.4,18.1c0.5,6.7,0.7,13.4,0.4,20.2
			c-0.3,6.7-0.9,13.1-1.7,19.2c-0.9,6.1-1.9,11.1-3.1,15c-1,3.3-2.2,6.2-3.8,8.9c-1.5,2.7-3.2,4.7-4.9,6c-1.7,1.3-3.5,1.6-5.4,1
			c-1.8-0.7-3.5-2.7-4.9-6.1c-0.4-1.2-0.3-2.3,0.3-3.3c0.7-1,1.3-1,1.8,0c1.3,3,2.7,4.8,4,5.3c1.3,0.5,2.6,0.3,3.9-0.8
			c1.3-1,2.4-2.7,3.6-5c1.1-2.3,2.1-4.7,2.9-7.3c1.4-4.6,2.6-9.8,3.4-15.9c0.8-6,1.3-12.2,1.3-18.5c0.1-6.3-0.2-12.5-0.7-18.6
			c-0.6-6.1-1.5-11.4-2.8-16.1c-0.3-0.9-0.6-1.9-1.1-2.9c-0.4-1-0.9-1.9-1.5-2.5c-0.5-0.7-1.1-1-1.8-1.2c-0.7-0.1-1.4,0.3-2.2,1.2
			c-3.4,6.9-6,14.7-7.7,23.3c-1.7,8.6-2.8,17.6-3.4,27.1c-0.6,9.5-0.8,19.1-0.7,29c0.1,9.9,0.4,19.5,0.7,28.9
			c0.3,3.1,0.5,6.3,0.8,9.5c0.3,3.2,0.4,6.4,0.5,9.5c0,0.8,0,1.4,0.1,1.8l-0.4-0.2c-0.3,0.7-0.7,0.9-1.2,0.9
			c-0.5-0.1-0.9-0.6-1.2-1.5v-0.2c-0.4-4.7-0.8-9.4-1.1-14.2c-0.3-4.8-0.6-9.6-0.7-14.4v-1L554.1,246.5z"/>
		<path d="M592.4,277.8c-0.7-0.5-1.1-1.3-1-2.2c0-1,0.4-1.5,1.1-1.5c0-1.4,0-2.7,0-3.8c0-1.1,0-2.2,0.1-3.2c0.1-1.6,0.2-3.8,0.3-6.8
			c0.1-3,0.3-6.2,0.6-9.5c0.3-3.3,0.8-6.5,1.5-9.6c0.7-3.1,1.7-5.3,3.1-6.8c1.8-2,3.4-2.7,5-2.2c1.5,0.5,2.9,1.7,4.2,3.4
			c1.3,1.8,2.3,3.8,3.2,6.2c0.9,2.3,1.7,4.4,2.3,6.1c1,2.7,1.5,5.9,1.6,9.6c0.1,3.7-0.2,7.2-0.9,10.7c-0.7,3.5-1.8,6.6-3.3,9.5
			c-1.5,2.9-3.2,5-5.3,6.3c-1,0.7-1.9,0.9-2.7,0.8c-0.8-0.1-1.6-0.5-2.3-1c-0.8-0.5-1.5-1.2-2.2-2c-0.7-0.8-1.4-1.5-2.1-2.2
			c0.4,3.9,0.9,8.1,1.7,12.5c0.8,4.4,1.8,8.6,2.9,12.4c1.1,3.8,2.4,7.1,3.9,9.8c1.5,2.7,3.1,4.2,4.8,4.6c1.7,0.4,3.6-0.6,5.5-3
			c1.9-2.4,4-6.8,6.1-13.2c0.6-0.9,1.3-1.1,1.9-0.7c0.6,0.5,0.8,1.3,0.5,2.4c-0.6,1.6-1.3,3.3-2,5.3c-0.7,2-1.5,3.8-2.5,5.7
			c-0.9,1.8-2,3.4-3.2,4.8c-1.2,1.4-2.5,2.3-3.9,2.6c-3,0.7-5.5-0.4-7.7-3.2c-2.2-2.8-4.1-6.5-5.6-11.1c-1.5-4.6-2.7-9.6-3.6-15.2
			c-0.9-5.5-1.4-10.7-1.7-15.4c-0.1,0-0.2,0-0.2-0.1C592.6,277.8,592.5,277.8,592.4,277.8z M596.7,246.5c-0.7,4.6-1.2,9.3-1.4,14.3
			c-0.2,5-0.2,9.8-0.1,14.5c1.3,1,2.5,2.3,3.7,3.8c1.2,1.5,2.5,2.1,3.8,1.9c2.2-0.4,4-1.9,5.2-4.4c1.3-2.5,2.1-5.4,2.6-8.7
			c0.5-3.3,0.7-6.6,0.6-10c-0.1-3.4-0.4-6.2-0.8-8.4c-0.6-2.9-1.6-5.4-2.8-7.6c-1.3-2.2-2.6-3.7-4-4.3c-1.4-0.7-2.7-0.3-4,1
			C598.3,239.8,597.3,242.4,596.7,246.5z"/>
		<path d="M628.1,236.5c-0.8-0.7-1.1-1.5-1-2.5c0.1-1,0.7-1.4,1.7-1.2c0.7-0.3,1.5,1.3,2.3,4.7c0.8,3.4,1.6,7.9,2.3,13.6
			c0.8,5.7,1.4,12.1,1.9,19.3c0.5,7.2,0.9,14.4,1.2,21.7c0.3-5.6,0.6-12,1.1-19.3c0.4-7.2,1.2-14.2,2.3-20.7
			c1.1-6.6,2.6-12.3,4.6-17.1c2-4.8,4.8-7.7,8.4-8.6c0.8,0.3,1.2,0.9,1.3,1.9c0,1-0.3,1.7-1.1,2.1c-2.5,0.4-4.6,2.9-6.4,7.5
			c-1.7,4.6-3.2,10.3-4.4,17.1c-1.2,6.8-2.1,14.2-2.7,22.1c-0.6,8-1.1,15.4-1.4,22.4c-0.3,7-0.5,13-0.5,18.2c0,5.2-0.1,8.2-0.1,9.3
			c-0.4,0.7-0.8,1.1-1.4,1.3c-0.6,0.2-0.9-0.2-1-1.3c-0.1-1.8-0.2-4.7-0.3-8.7c-0.1-4-0.2-8.5-0.5-13.7c-0.2-5.2-0.5-10.8-0.8-16.8
			c-0.3-6.1-0.7-12.1-1.2-18c-0.5-5.9-1.1-11.7-1.7-17.2c-0.6-5.5-1.3-10.4-2.1-14.6C628.5,237.3,628.3,236.9,628.1,236.5z"/>
		<path d="M677.8,229.4c0.5,0.9,0.6,1.8,0.2,2.7c-0.4,0.9-1,1.1-1.7,0.6c-1.6-1.7-3.2-2.3-4.8-1.9c-1.6,0.5-3.2,1.5-4.6,3.2
			c-1.5,1.7-2.8,3.9-4,6.6c-1.2,2.7-2.2,5.4-3.1,8.2c-0.9,2.8-1.5,5.5-1.8,8.2c-0.4,2.7-0.4,4.9-0.1,6.6c0.4,2,1.1,3.6,2.2,4.8
			c1.1,1.2,2.4,2.2,3.9,2.9c1.5,0.7,3,1.3,4.4,1.8c1.5,0.5,2.7,0.9,3.7,1.3c2.7,1,5.3,2.3,7.9,3.6c2.6,1.4,4.8,3.2,6.5,5.5
			c1.7,2.3,2.9,5.2,3.4,8.6c0.5,3.5,0,7.7-1.4,12.6c-0.9,3.1-2.1,6-3.8,8.6c-1.6,2.6-3.4,4.8-5.4,6.7c-2,1.8-4.2,3.2-6.4,4
			c-2.3,0.9-4.6,1-7,0.5c-1-0.3-2.1-0.6-3.5-1.1c-1.3-0.5-2.4-1.3-3.1-2.4c-2.2-3.4-3.5-7.2-3.9-11.3c-0.4-4.2-0.5-8.5-0.5-12.9
			c0.2-1.4,0.6-2.2,1.3-2.2c0.7,0,1.2,0.7,1.3,2.2c0,3.1,0,6.5,0.1,10c0.1,3.5,0.8,6.6,2,9.2c1.2,2.5,2.7,4,4.7,4.6
			c2,0.6,4,0.6,6.1,0c2.1-0.6,4.1-1.6,6.1-2.9c2-1.4,3.6-2.8,4.8-4.4c1.2-1.6,2.1-3.3,2.8-5.1c0.7-1.8,1.4-3.7,2.1-5.5
			c0.2-0.8,0.3-1.3,0.3-1.6c0.9-4.8,0.9-8.6,0-11.3c-0.9-2.7-2.3-4.9-4.3-6.5c-2-1.6-4.3-2.8-7-3.6c-2.7-0.8-5.4-1.8-8-2.9
			c-2.6-1.1-5-2.5-7.2-4.2c-2.2-1.7-3.7-4.2-4.6-7.6c-0.7-2.3-0.9-5.1-0.5-8.3c0.4-3.2,1.1-6.4,2.1-9.7c1.1-3.3,2.4-6.4,4.1-9.3
			c1.7-2.9,3.4-5.3,5.3-7.1c1.9-1.8,3.8-2.9,5.8-3.2C674.1,226.9,676,227.6,677.8,229.4z"/>
	</g>
	<g enable-background="new    ">
		<path fill="none" stroke="#E7BE1F" stroke-width="10.1872" d="M425.2,276.6c-0.4-0.9-0.3-1.8,0.3-2.5l5.1-4.7
			c-0.3-12.5-0.5-24.9-0.7-37.2c-0.2-12.3-0.4-24.6-0.6-37c0.2-1.4,0.6-2.2,1.3-2.2c0.7,0,1.2,0.7,1.3,2.2c0.1,12,0.2,24,0.5,35.9
			c0.2,11.9,0.5,23.9,0.9,35.9c5.9-5.5,11.8-10.5,17.6-15c5.8-4.5,12-8.1,18.5-10.9c0.2-8.2,0.4-16.5,0.5-24.8
			c0.2-8.3,0.4-16.6,0.5-24.9c0.2-1.4,0.6-2.2,1.3-2.2c0.7,0,1.2,0.7,1.3,2.2c-0.2,8.2-0.4,16.3-0.5,24.4c-0.2,8-0.4,16.1-0.5,24.4
			c4.4-1.7,8.8-2.8,13.3-3.3c0.8,0.3,1.2,0.9,1.3,1.9c0,1-0.3,1.7-1.1,2.1c-4.7,0.5-9.3,1.7-13.6,3.5c-0.2,11.3-0.2,22.6,0.1,33.9
			c0.2,11.2,1,22.5,2.2,33.9c0.2,1.4-0.1,2.2-0.9,2.3c-0.8,0.1-1.3-0.5-1.6-1.8c-1.3-11.3-2-22.6-2.3-33.7
			c-0.3-11.1-0.3-22.3-0.1-33.7c-6.4,2.9-12.6,6.6-18.4,11.1c-5.8,4.5-11.7,9.5-17.6,15l0.3,6.8c0.4,11.9,0.6,23.8,0.9,35.7
			c0.2,11.9,1,23.8,2.3,35.7c0.2,1.4-0.1,2.2-0.9,2.3c-0.8,0.1-1.3-0.5-1.6-1.8c-1.4-11.9-2.3-23.9-2.5-36
			c-0.2-12.1-0.5-24.1-0.9-36c-0.1-0.7-0.1-1.4-0.1-2.2c0-0.8,0-1.5,0-2.2l-3.9,3.5C426.1,277.8,425.6,277.5,425.2,276.6z"/>
		<path fill="none" stroke="#E7BE1F" stroke-width="10.1872" d="M488.2,234.5c2.1-2.2,4-3.3,6-3.3c1.9,0,3.7,0.6,5.3,1.9
			c1.6,1.2,3,2.9,4.2,4.9c1.2,2,2.2,3.9,3,5.6c0.7,1.6,1.4,4,2.1,7.3c0.7,3.3,1.3,7.1,1.8,11.4c0.5,4.3,0.8,8.9,0.9,13.9
			c0.1,5,0,9.9-0.4,14.7c-0.4,4.8-1.1,9.4-2.1,13.8c-1,4.4-2.5,8.1-4.4,11.3c-3,4.8-5.6,7.1-8.1,6.8c-2.4-0.3-4.5-1.9-6.2-4.9
			c-1.7-3-3.2-6.7-4.2-11.2c-1.1-4.4-1.8-8.3-2.3-11.7c-0.4-3.4-0.8-6.4-0.9-9.1c-0.2-2.7-0.3-5.3-0.3-7.8c0-2.5,0-5.1,0.1-7.7
			c0-2.6,0.1-5.6,0.2-9c0.1-2.9,0.2-5.7,0.5-8.5c0.2-2.8,0.5-5.4,0.9-7.8c0.4-2.4,0.9-4.5,1.5-6.4
			C486.6,236.8,487.3,235.5,488.2,234.5z M499.6,238.4c-0.7-0.7-1.5-1.2-2.3-1.8c-0.9-0.5-1.7-0.8-2.7-0.9c-0.9-0.1-1.8,0.1-2.7,0.5
			c-0.9,0.4-1.6,1.1-2.2,2.2c-1.1,2.3-2,5.6-2.7,9.7c-0.7,4.1-1.2,8.7-1.5,13.8s-0.3,10.4-0.2,15.8c0.1,5.5,0.5,10.7,1.1,15.7
			c0.6,5,1.5,9.4,2.6,13.4c1.1,4,2.5,6.9,4.1,8.9c1.4,1.6,3.1,2,4.9,1.4c1.8-0.7,3.4-1.9,4.6-3.7c1.5-2.6,2.8-6,3.8-10.2
			c1-4.2,1.8-8.7,2.3-13.5c0.5-4.8,0.7-9.8,0.5-15c-0.1-5.2-0.6-10-1.3-14.7c-0.8-4.6-1.8-8.8-3.2-12.6
			C503.4,243.7,501.7,240.7,499.6,238.4z"/>
		<path fill="none" stroke="#E7BE1F" stroke-width="10.1872" d="M516,246.5c-0.4-0.4-0.5-1-0.4-2c0.2-1,0.5-1.7,1.1-2.1
			c0.5-0.3,1,0,1.5,0.9c0.4,0.8,0.7,2.5,1,5.2c0.3,2.7,0.6,5.8,0.9,9.5c0.3,3.7,0.5,7.5,0.8,11.6c0.3,4.1,0.5,8,0.7,11.5
			c0.2,3.6,0.4,6.6,0.6,9.1c0.2,2.5,0.4,4,0.5,4.5c0.4-5.9,0.9-12.1,1.6-18.7c0.7-6.6,1.6-12.6,2.6-18.1c0.4-1.7,0.8-3.9,1.4-6.8
			c0.6-2.8,1.3-5.6,2-8.3c0.8-2.7,1.6-5.2,2.6-7.5c0.9-2.3,1.9-3.9,2.9-4.8c2.1-1.8,4-2.4,5.6-1.8c1.6,0.7,3.2,3.5,4.9,8.6
			c1.7,5.4,2.8,11.4,3.4,18.1c0.5,6.7,0.7,13.4,0.4,20.2c-0.3,6.7-0.9,13.1-1.7,19.2c-0.9,6.1-1.9,11.1-3.1,15
			c-1,3.3-2.2,6.2-3.8,8.9c-1.5,2.7-3.2,4.7-4.9,6c-1.7,1.3-3.5,1.6-5.4,1c-1.8-0.7-3.5-2.7-4.9-6.1c-0.4-1.2-0.3-2.3,0.3-3.3
			c0.7-1,1.3-1,1.8,0c1.3,3,2.7,4.8,4,5.3c1.3,0.5,2.6,0.3,3.9-0.8c1.3-1,2.4-2.7,3.6-5c1.1-2.3,2.1-4.7,2.9-7.3
			c1.4-4.6,2.6-9.8,3.4-15.9c0.8-6,1.3-12.2,1.3-18.5c0.1-6.3-0.2-12.5-0.7-18.6c-0.6-6.1-1.5-11.4-2.8-16.1
			c-0.3-0.9-0.6-1.9-1.1-2.9c-0.4-1-0.9-1.9-1.5-2.5c-0.5-0.7-1.1-1-1.8-1.2c-0.7-0.1-1.4,0.3-2.2,1.2c-3.4,6.9-6,14.7-7.7,23.3
			c-1.7,8.6-2.8,17.6-3.4,27.1c-0.6,9.5-0.8,19.1-0.7,29c0.1,9.9,0.4,19.5,0.7,28.9c0.3,3.1,0.5,6.3,0.8,9.5
			c0.3,3.2,0.4,6.4,0.5,9.5c0,0.8,0,1.4,0.1,1.8l-0.4-0.2c-0.3,0.7-0.7,0.9-1.2,0.9c-0.5-0.1-0.9-0.6-1.2-1.5v-0.2
			c-0.4-4.7-0.8-9.4-1.1-14.2c-0.3-4.8-0.6-9.6-0.7-14.4v-1L516,246.5z"/>
		<path fill="none" stroke="#E7BE1F" stroke-width="10.1872" d="M554.1,246.5c-0.4-0.4-0.5-1-0.4-2c0.2-1,0.5-1.7,1.1-2.1
			c0.5-0.3,1,0,1.5,0.9c0.4,0.8,0.7,2.5,1,5.2c0.3,2.7,0.6,5.8,0.9,9.5c0.3,3.7,0.5,7.5,0.8,11.6c0.3,4.1,0.5,8,0.7,11.5
			c0.2,3.6,0.4,6.6,0.6,9.1c0.2,2.5,0.4,4,0.5,4.5c0.4-5.9,0.9-12.1,1.6-18.7c0.7-6.6,1.6-12.6,2.6-18.1c0.4-1.7,0.8-3.9,1.4-6.8
			c0.6-2.8,1.3-5.6,2-8.3c0.8-2.7,1.6-5.2,2.6-7.5c0.9-2.3,1.9-3.9,2.9-4.8c2.1-1.8,4-2.4,5.6-1.8c1.6,0.7,3.2,3.5,4.9,8.6
			c1.7,5.4,2.8,11.4,3.4,18.1c0.5,6.7,0.7,13.4,0.4,20.2c-0.3,6.7-0.9,13.1-1.7,19.2c-0.9,6.1-1.9,11.1-3.1,15
			c-1,3.3-2.2,6.2-3.8,8.9c-1.5,2.7-3.2,4.7-4.9,6c-1.7,1.3-3.5,1.6-5.4,1c-1.8-0.7-3.5-2.7-4.9-6.1c-0.4-1.2-0.3-2.3,0.3-3.3
			c0.7-1,1.3-1,1.8,0c1.3,3,2.7,4.8,4,5.3c1.3,0.5,2.6,0.3,3.9-0.8c1.3-1,2.4-2.7,3.6-5c1.1-2.3,2.1-4.7,2.9-7.3
			c1.4-4.6,2.6-9.8,3.4-15.9c0.8-6,1.3-12.2,1.3-18.5c0.1-6.3-0.2-12.5-0.7-18.6c-0.6-6.1-1.5-11.4-2.8-16.1
			c-0.3-0.9-0.6-1.9-1.1-2.9c-0.4-1-0.9-1.9-1.5-2.5c-0.5-0.7-1.1-1-1.8-1.2c-0.7-0.1-1.4,0.3-2.2,1.2c-3.4,6.9-6,14.7-7.7,23.3
			c-1.7,8.6-2.8,17.6-3.4,27.1c-0.6,9.5-0.8,19.1-0.7,29c0.1,9.9,0.4,19.5,0.7,28.9c0.3,3.1,0.5,6.3,0.8,9.5
			c0.3,3.2,0.4,6.4,0.5,9.5c0,0.8,0,1.4,0.1,1.8l-0.4-0.2c-0.3,0.7-0.7,0.9-1.2,0.9c-0.5-0.1-0.9-0.6-1.2-1.5v-0.2
			c-0.4-4.7-0.8-9.4-1.1-14.2c-0.3-4.8-0.6-9.6-0.7-14.4v-1L554.1,246.5z"/>
		<path fill="none" stroke="#E7BE1F" stroke-width="10.1872" d="M592.4,277.8c-0.7-0.5-1.1-1.3-1-2.2c0-1,0.4-1.5,1.1-1.5
			c0-1.4,0-2.7,0-3.8c0-1.1,0-2.2,0.1-3.2c0.1-1.6,0.2-3.8,0.3-6.8c0.1-3,0.3-6.2,0.6-9.5c0.3-3.3,0.8-6.5,1.5-9.6
			c0.7-3.1,1.7-5.3,3.1-6.8c1.8-2,3.4-2.7,5-2.2c1.5,0.5,2.9,1.7,4.2,3.4c1.3,1.8,2.3,3.8,3.2,6.2c0.9,2.3,1.7,4.4,2.3,6.1
			c1,2.7,1.5,5.9,1.6,9.6c0.1,3.7-0.2,7.2-0.9,10.7c-0.7,3.5-1.8,6.6-3.3,9.5c-1.5,2.9-3.2,5-5.3,6.3c-1,0.7-1.9,0.9-2.7,0.8
			c-0.8-0.1-1.6-0.5-2.3-1c-0.8-0.5-1.5-1.2-2.2-2c-0.7-0.8-1.4-1.5-2.1-2.2c0.4,3.9,0.9,8.1,1.7,12.5c0.8,4.4,1.8,8.6,2.9,12.4
			c1.1,3.8,2.4,7.1,3.9,9.8c1.5,2.7,3.1,4.2,4.8,4.6c1.7,0.4,3.6-0.6,5.5-3c1.9-2.4,4-6.8,6.1-13.2c0.6-0.9,1.3-1.1,1.9-0.7
			c0.6,0.5,0.8,1.3,0.5,2.4c-0.6,1.6-1.3,3.3-2,5.3c-0.7,2-1.5,3.8-2.5,5.7c-0.9,1.8-2,3.4-3.2,4.8c-1.2,1.4-2.5,2.3-3.9,2.6
			c-3,0.7-5.5-0.4-7.7-3.2c-2.2-2.8-4.1-6.5-5.6-11.1c-1.5-4.6-2.7-9.6-3.6-15.2c-0.9-5.5-1.4-10.7-1.7-15.4c-0.1,0-0.2,0-0.2-0.1
			C592.6,277.8,592.5,277.8,592.4,277.8z M596.7,246.5c-0.7,4.6-1.2,9.3-1.4,14.3c-0.2,5-0.2,9.8-0.1,14.5c1.3,1,2.5,2.3,3.7,3.8
			c1.2,1.5,2.5,2.1,3.8,1.9c2.2-0.4,4-1.9,5.2-4.4c1.3-2.5,2.1-5.4,2.6-8.7c0.5-3.3,0.7-6.6,0.6-10c-0.1-3.4-0.4-6.2-0.8-8.4
			c-0.6-2.9-1.6-5.4-2.8-7.6c-1.3-2.2-2.6-3.7-4-4.3c-1.4-0.7-2.7-0.3-4,1C598.3,239.8,597.3,242.4,596.7,246.5z"/>
		<path fill="none" stroke="#E7BE1F" stroke-width="10.1872" d="M628.1,236.5c-0.8-0.7-1.1-1.5-1-2.5c0.1-1,0.7-1.4,1.7-1.2
			c0.7-0.3,1.5,1.3,2.3,4.7c0.8,3.4,1.6,7.9,2.3,13.6c0.8,5.7,1.4,12.1,1.9,19.3c0.5,7.2,0.9,14.4,1.2,21.7c0.3-5.6,0.6-12,1.1-19.3
			c0.4-7.2,1.2-14.2,2.3-20.7c1.1-6.6,2.6-12.3,4.6-17.1c2-4.8,4.8-7.7,8.4-8.6c0.8,0.3,1.2,0.9,1.3,1.9c0,1-0.3,1.7-1.1,2.1
			c-2.5,0.4-4.6,2.9-6.4,7.5c-1.7,4.6-3.2,10.3-4.4,17.1c-1.2,6.8-2.1,14.2-2.7,22.1c-0.6,8-1.1,15.4-1.4,22.4
			c-0.3,7-0.5,13-0.5,18.2c0,5.2-0.1,8.2-0.1,9.3c-0.4,0.7-0.8,1.1-1.4,1.3c-0.6,0.2-0.9-0.2-1-1.3c-0.1-1.8-0.2-4.7-0.3-8.7
			c-0.1-4-0.2-8.5-0.5-13.7c-0.2-5.2-0.5-10.8-0.8-16.8c-0.3-6.1-0.7-12.1-1.2-18c-0.5-5.9-1.1-11.7-1.7-17.2
			c-0.6-5.5-1.3-10.4-2.1-14.6C628.5,237.3,628.3,236.9,628.1,236.5z"/>
		<path fill="none" stroke="#E7BE1F" stroke-width="10.1872" d="M677.8,229.4c0.5,0.9,0.6,1.8,0.2,2.7c-0.4,0.9-1,1.1-1.7,0.6
			c-1.6-1.7-3.2-2.3-4.8-1.9c-1.6,0.5-3.2,1.5-4.6,3.2c-1.5,1.7-2.8,3.9-4,6.6c-1.2,2.7-2.2,5.4-3.1,8.2c-0.9,2.8-1.5,5.5-1.8,8.2
			c-0.4,2.7-0.4,4.9-0.1,6.6c0.4,2,1.1,3.6,2.2,4.8c1.1,1.2,2.4,2.2,3.9,2.9c1.5,0.7,3,1.3,4.4,1.8c1.5,0.5,2.7,0.9,3.7,1.3
			c2.7,1,5.3,2.3,7.9,3.6c2.6,1.4,4.8,3.2,6.5,5.5c1.7,2.3,2.9,5.2,3.4,8.6c0.5,3.5,0,7.7-1.4,12.6c-0.9,3.1-2.1,6-3.8,8.6
			c-1.6,2.6-3.4,4.8-5.4,6.7c-2,1.8-4.2,3.2-6.4,4c-2.3,0.9-4.6,1-7,0.5c-1-0.3-2.1-0.6-3.5-1.1c-1.3-0.5-2.4-1.3-3.1-2.4
			c-2.2-3.4-3.5-7.2-3.9-11.3c-0.4-4.2-0.5-8.5-0.5-12.9c0.2-1.4,0.6-2.2,1.3-2.2c0.7,0,1.2,0.7,1.3,2.2c0,3.1,0,6.5,0.1,10
			c0.1,3.5,0.8,6.6,2,9.2c1.2,2.5,2.7,4,4.7,4.6c2,0.6,4,0.6,6.1,0c2.1-0.6,4.1-1.6,6.1-2.9c2-1.4,3.6-2.8,4.8-4.4
			c1.2-1.6,2.1-3.3,2.8-5.1c0.7-1.8,1.4-3.7,2.1-5.5c0.2-0.8,0.3-1.3,0.3-1.6c0.9-4.8,0.9-8.6,0-11.3c-0.9-2.7-2.3-4.9-4.3-6.5
			c-2-1.6-4.3-2.8-7-3.6c-2.7-0.8-5.4-1.8-8-2.9c-2.6-1.1-5-2.5-7.2-4.2c-2.2-1.7-3.7-4.2-4.6-7.6c-0.7-2.3-0.9-5.1-0.5-8.3
			c0.4-3.2,1.1-6.4,2.1-9.7c1.1-3.3,2.4-6.4,4.1-9.3c1.7-2.9,3.4-5.3,5.3-7.1c1.9-1.8,3.8-2.9,5.8-3.2
			C674.1,226.9,676,227.6,677.8,229.4z"/>
	</g>
</g>
</svg>
