<?xml version="1.0" encoding="utf-8"?>
<!-- Generator: Adobe Illustrator 18.1.0, SVG Export Plug-In . SVG Version: 6.00 Build 0)  -->
<svg version="1.1" id="Layer_1" xmlns="http://www.w3.org/2000/svg" xmlns:xlink="http://www.w3.org/1999/xlink" x="0px" y="0px"
	 viewBox="0 0 1000 750" enable-background="new 0 0 1000 750" xml:space="preserve">
<g>
	<text transform="matrix(0.4624 0 0 1 330.1913 509.0302)"><tspan x="0" y="0" stroke="#000000" stroke-width="4.9136" font-family="'alwaysforever'" font-size="431.1274">ostel</tspan><tspan x="482" y="0" stroke="#E7BE1F" stroke-width="4.9136" font-family="'alwaysforever'" font-size="431.1274"> </tspan><tspan x="563" y="0" stroke="#E7BE1F" stroke-width="12.2839" font-family="'alwaysforever'" font-size="431.1274">Hoppers</tspan></text>
	<g>
		<title>sgfdg</title>
		<g id="svg_10">
			<g id="svg_11">
				<path id="svg_12" d="M94.5,297.8c15,0,27.1-29.7,27.1-66.4c0-36.7-12.1-66.4-27.1-66.4c-15,0-27.1,29.7-27.1,66.4
					C67.4,268.1,79.6,297.8,94.5,297.8z"/>
				<path id="svg_13" d="M94.5,231.4"/>
			</g>
			<path id="svg_14" d="M153.1,212.5h108.4c15.9,0,25.3,25.1,25.3,58.6v96.1H153.1C153.1,367.3,153.1,212.5,153.1,212.5z"/>
			<path id="svg_15" d="M123.6,246.9v57.6H81.9c-20.1,0.2-20.2,63.5,0,63.5h54.6c8,0,13-15.8,13-33.6v-87.6
				C149.5,199,123.6,199,123.6,246.9z"/>
			<path id="svg_16" d="M62.2,157.2c0-52.3-29.6-52.3-29.6,0v419.5h30.3V468.3h230.5v107.5H323v-324c0-55.2-30-55.2-30,0v129.3H62.2
				L62.2,157.2C62.2,157.2,62.2,157.2,62.2,157.2z"/>
		</g>
	</g>
</g>
</svg>
